<?xml version="1.0" encoding="utf-8"?>
<!-- Generator: Adobe Illustrator 25.2.1, SVG Export Plug-In . SVG Version: 6.00 Build 0)  -->
<svg version="1.1" id="iphone" xmlns="http://www.w3.org/2000/svg" xmlns:xlink="http://www.w3.org/1999/xlink" x="0px" y="0px"
	 viewBox="0 0 1360.1 536.6" style="enable-background:new 0 0 1360.1 536.6;" xml:space="preserve">
<style type="text/css">
	.st0{clip-path:url(#SVGID_2_);}
	.st1{fill:#75F2F8;}
	.st2{fill:#9EF9FD;}
	.st3{fill:#C1FCFF;}
	.st4{fill:#3BE4EC;}
	.st5{fill:#00BBC5;}
</style>
<g>
	<defs>
		<rect id="SVGID_1_" x="0.1" y="-98.9" width="1360" height="762"/>
	</defs>
	<clipPath id="SVGID_2_">
		<use xlink:href="#SVGID_1_"  style="overflow:visible;"/>
	</clipPath>
	<g class="st0">
		<path class="st1" d="M1936.5,20.2c-42.8,0-242.1,95-301.7,120.9c-5.6,2.6-10.8,5.7-16.9,7.7c-37.9,12.7-75.4,26.1-114.2,37.4
			c-39.3,11.5-81.3,6.1-123.4,2.6c-65.3-5.6-145.2-29.3-206.1-44.7c-37.5-9.5-140.9-68.2-180.8-62.7c-14.1,1.9-94.1-26.5-191.3-29.2
			l-183.7-25c-42.8,0-283.3,88-342.9,114c-5.6,2.6-10.8,5.7-16.9,7.7C220.5,161.5,62.9,187,20.7,183.4
			c-65.3-5.6-145.1-23.9-206-39.3c-37.5-9.5-140.3-39.2-180.3-33.7c-47.5,6.6-101.2-1-101.2-1s-45,67.4-45,84.7
			c1.3-0.6,3.3,26,3.8,25.2c12-18,34.5-27.9,63.3-30.5c23.3-2.1,47.5-2.7,70.9-1.4c31,1.8,61.6,7.1,87.8,18.1
			c34.6,14.5,67.5,3.6,100.9,19.3c94.1,44.3,185.7,90.9,285,130.6c46.7,18.7,95.4,34.9,147.3,46.9c59.5,13.8,115.7,17.7,184,17.7
			c180.2,0,356.2-50.8,358.1-52.9C822,331,902.8,255.4,937.7,187.3c16-0.7,32.2-0.7,48,0.2c31,1.8,61.6,7.1,87.8,18.1
			c34.6,14.5,67.5,3.6,100.9,19.3c94.1,44.3,185.7,90.9,285,130.6c46.7,18.7,95.4,34.9,147.3,46.9c59.5,13.8,115.7,17.7,184,17.7
			c180.2,0,358.1-50.2,358.1-52.9c0.1-74.8,12.6-314.9,12.6-314.9L1936.5,20.2z"/>
		<path class="st2" d="M1790.7,531.5c-68.3,0-124.5-3.8-184-17.7c-51.9-12.1-100.6-28.3-147.3-46.9
			c-99.3-39.7-190.9-132.5-285-176.8c-33.4-15.7-66.3-31.9-100.9-46.4c-26.2-11-56.8-16.3-87.8-18.1c-23.4-1.3-47.6-0.8-70.9,1.4
			c-28.8,2.6-51.3,12.6-63.3,30.5c-0.5,0.8-2.5,1.2-3.8,1.8c0-17.4,41.4-65.7,41.4-65.7s57.3-11.5,104.7-18
			c39.9-5.5,142.8,24.2,180.3,33.7c60.9,15.4,140.7,43.7,206.1,49.3c42.2,3.6,84.2,4.3,123.4-7.2c38.9-11.3,76.3-24.7,114.2-37.4
			c6.1-2,11.3-5.1,16.9-7.7c59.6-25.9,291-149,530.1-120.4l-3.5,31.5c0,0-12.4,286.3-12.6,361.1
			C2148.8,481.2,1970.9,531.5,1790.7,531.5z"/>
		<path class="st2" d="M431.3,531.5c-68.3,0-124.5-3.8-184-17.7c-51.9-12.1-100.6-28.3-147.3-46.9C0.7,427.2-90.9,334.4-185,290.1
			c-33.4-15.7-66.3-31.9-100.9-46.4c-26.2-11-56.8-16.3-87.8-18.1c-23.4-1.3-47.6-0.8-70.9,1.4c-28.8,2.6-51.3,12.6-63.3,30.5
			c-0.5,0.8-2.5,1.2-3.8,1.8c0-17.4,41.4-65.7,41.4-65.7s57.3-11.5,104.7-18c39.9-5.5,142.8,24.2,180.3,33.7
			c60.9,15.4,140.4,49.7,205.8,55.2c42.2,3.6,84.5-1.7,123.8-13.1c38.9-11.3,76.3-24.7,114.2-37.4c6.1-2,11.3-5.1,16.9-7.7
			c59.6-25.9,430.8-157.4,705.6-82.1s524.3,402,296,353.7s-336.3-19.6-441.2,4.2C730.9,505.9,611.5,531.5,431.3,531.5z"/>
		<path class="st1" d="M806.1,191.3c319.8-22.4,701.8,154.5,910.5,138.8s452.5-142.4,452.5-142.4l0,65
			c-281.3,110.7-406.9,130.8-595.8,136.3c-83,2.4-153-8.7-214.4-22.2c-78.3-17.3-142.7-38.3-201.8-37.7c-95.9,1-188.1-82-352.2-52.6
			c-255.1,45.6-351.5,113.4-545.7,117.8c-189,4.3-391.8-65.8-497.3-64.8c-95.9,1-272.6,29-272.6,29l-37.7-77.6
			c315-111.9,696.9,65,905.6,49.3S806.1,191.3,806.1,191.3z"/>
		<path class="st3" d="M848.3,223.8C723,244,694.4,280.8,562.4,327.3c-81.1,28.6-189.7,46.3-283.2,46.4
			c-108,0.1-206.5-25.1-248.2-37c-67-19.2-133-39.8-200.5-58.4c-48.8-13.4-100.1-21.4-154.1-20.7c-65.3,0.8-121.8,16.2-172,42.3
			c-3.8,2-7.6,4-12,6.3c-11.1-27.1-21.8-53.3-32.5-79.6c1-0.8,2.8-1.5,3-2.4c4.5-19.3,115.5-65.2,218.2-54.8
			c109.7,11,322.3,90.7,434,112.8c52.5,10.4,101.2,16.7,156.1,19.9c63,3.6,136.4-3.6,225.2-21.5c234.8-47.3,288.4-145.3,494.9-120.8
			c65.6,7.8,237.5,57.2,367.7,92.2c45.8,12.3,86.4,24.4,115.4,30.2c52.5,10.4,101.2,16.7,156.1,19.9c63,3.6,136.4-3.6,225.2-21.5
			c234.8-47.3,333.1-148.4,333.1-148.4s-0.7,33.4,0.7,36.9c-22,44.5-135.8,111.8-267.8,158.3c-81.1,28.6-189.7,46.3-283.2,46.4
			c-108,0.1-206.5-25.1-248.2-37c-10.5-3-20.9-6.2-31.3-9.3c-56.3-16.5-112.3-33.4-169.2-49.1C963.4,202.8,890.7,217,848.3,223.8z"
			/>
		<g>
			<path class="st3" d="M2170.7,67C2170.8,67,2170.7,67,2170.7,67C2170.7,67,2170.7,67,2170.7,67z"/>
			<path class="st3" d="M2175.7-26.4c0,0-232.7-23.1-429.7,86.3c-43.4,24.1-90.4,65.5-157.8,88.1c-55.3,18.5-143.1,19.1-229.2,6.1
				c-22.8-3.4-45.5-7.7-67.4-13c-83.6-20.1-128.7-35.9-153.9-46.1C974.3,29.1,891,19.6,822,12.5S597.8-11,400.8,78
				c-43.4,19.6-98.9,53.3-166.3,71.6c-69.9,19-197.7,16.6-302.3-8.6c-83.6-20.1-129.2-39.8-153.9-50.7
				c-146.6-65-207.1-68.6-207.1-68.6l1.6,122.7c0,0,59.9-33,260.1,14.4c61.4,14.5,122.3,29,187.7,34.6
				c97.8,6.8,174.1-7.1,235.9-34.6c64.9-28.9,123.3-57,187.5-75.8c196.3-57.4,321.3-36.5,378-23c44.1,10.5,170.1,51.5,370.3,98.9
				c54.8,13,109.2,25.8,166.7,32.4c7,0.8,13.9,1.6,21,2.2c97.8,6.8,174.1-7.1,235.9-34.6c64.9-28.9,123-57.6,187.5-75.8
				c228.4-64.4,363.4-18.1,367.1-16.1C2169.3,64,2175.7-26.4,2175.7-26.4z"/>
		</g>
		<path class="st4" d="M562.4,445.2c-81.1,28.6-189.7,46.3-283.2,46.4C171.2,491.6,72.7,471.3,31,462c-67-15-133-31.1-200.5-45.6
			c-48.8-10.5-100.1-16.7-154.1-16.2c-65.3,0.7-121.8,12.6-172,33c-3.8,1.5-7.6,3.1-12,4.9c-11.1-21.2-21.8-67.5-32.5-93.8
			c1-0.8,2.8-1.5,3-2.4c4.5-19.3,22.4-32.6,49.2-39.9c29.1-15.8,66.4-25.2,169-14.9c109.7,11,322.3,90.7,434,112.8
			c52.5,10.4,101.2,16.7,156.1,19.9c63,3.6,137.1-1.5,225.2-21.5c169-38.4,244-75.6,318.5-98.4c74.5-22.8,122.9-23.1,225.5-12.8
			c78.4,7.9,209.5,50.7,318.6,82.6c43.5,12.7,83.5,23.9,115.4,30.2c52.5,10.4,101.2,16.7,156.1,19.9c63,3.6,136.4-3.6,225.2-21.5
			c234.8-47.3,333.1-148.4,333.1-148.4s-0.7,33.4,0.7,36.9c-22,44.5-135.8,111.8-267.8,158.3c-81.1,28.6-189.7,46.3-283.2,46.4
			c-108,0.1-206.5-20.2-248.2-29.6c-67-15-133-31.1-200.5-45.6c-48.8-10.5-100.1-16.7-154.1-16.2
			C970.5,400.9,694.4,398.7,562.4,445.2z"/>
		<path class="st5" d="M2163.4,319.2c0,0-238.3,133.8-446.9,149.5c-91.3,6.9-211.7-17.3-361.3-47.2
			c-183-36.6-378.3-105.5-540.3-69.9c-210.2,46.3-249.1,101.4-457.8,117.1c-208.7,15.7-562.3-132.7-808.6-69.9l45.8,95.8
			c0,0,71.6-25.6,167.5-26.6c105.5-1.1,263.1,65.1,452.1,59.5c188-5.5,364.4-36.4,634.6-94.6c103.3-22.3,176.6-5,289.1,19
			c102.1,21.8,246.8,81.2,435.7,75.6s314.5-25.7,595.8-136.3L2163.4,319.2z"/>
	</g>
</g>
</svg>
